STARTFONT 2.1
FONT -ibm-courier-bold-o-normal--10-100-75-75-m-59-iso8859-2
SIZE 10 75 75
FONTBOUNDINGBOX 11 11 -1 -1
COMMENT $Header: courBO10.bdf,v 1.1 96/01/22 23:45:32 peterlin Exp $
COMMENT 
COMMENT Copyright International Business Machines,Corp. 1991
COMMENT IBM Courier is a Trademark of the IBM Corporation.
COMMENT 
COMMENT Automatic rendering from Adobe Type 1 outline:
COMMENT Primoz Peterlin <primoz.peterlin@biofiz.mf.uni-lj.si>
COMMENT courbi.pfa rendered at 11.000000 points
COMMENT Checksum eb69a063
STARTPROPERTIES 3
FONT_ASCENT 9
FONT_DESCENT 1
DEFAULT_CHAR 32
ENDPROPERTIES
CHARS 191
STARTCHAR space
ENCODING 32
SWIDTH 606 0
DWIDTH 7 0
BBX 0 0 0 1
BITMAP
ENDCHAR
STARTCHAR exclam
ENCODING 33
SWIDTH 606 0
DWIDTH 7 0
BBX 3 7 2 0
BITMAP
20
60
40
40
00
c0
40
ENDCHAR
STARTCHAR quotedbl
ENCODING 34
SWIDTH 606 0
DWIDTH 7 0
BBX 4 3 2 4
BITMAP
50
f0
a0
ENDCHAR
STARTCHAR numbersign
ENCODING 35
SWIDTH 606 0
DWIDTH 7 0
BBX 7 8 1 0
BITMAP
34
24
7e
6c
fc
48
48
98
ENDCHAR
STARTCHAR dollar
ENCODING 36
SWIDTH 606 0
DWIDTH 7 0
BBX 6 8 1 0
BITMAP
10
38
d8
70
38
f8
f0
60
ENDCHAR
STARTCHAR percent
ENCODING 37
SWIDTH 606 0
DWIDTH 7 0
BBX 6 7 1 1
BITMAP
70
f0
ec
70
9c
3c
38
ENDCHAR
STARTCHAR ampersand
ENCODING 38
SWIDTH 606 0
DWIDTH 7 0
BBX 5 6 1 1
BITMAP
38
60
60
e8
f0
78
ENDCHAR
STARTCHAR quoteright
ENCODING 39
SWIDTH 606 0
DWIDTH 7 0
BBX 3 3 3 4
BITMAP
60
40
c0
ENDCHAR
STARTCHAR parenleft
ENCODING 40
SWIDTH 606 0
DWIDTH 7 0
BBX 4 8 3 0
BITMAP
20
20
40
c0
c0
c0
c0
c0
ENDCHAR
STARTCHAR parenright
ENCODING 41
SWIDTH 606 0
DWIDTH 7 0
BBX 4 8 1 0
BITMAP
30
30
30
30
20
20
40
80
ENDCHAR
STARTCHAR asterisk
ENCODING 42
SWIDTH 606 0
DWIDTH 7 0
BBX 5 4 2 3
BITMAP
20
f8
60
f0
ENDCHAR
STARTCHAR plus
ENCODING 43
SWIDTH 606 0
DWIDTH 7 0
BBX 6 5 1 2
BITMAP
30
30
fc
30
30
ENDCHAR
STARTCHAR comma
ENCODING 44
SWIDTH 606 0
DWIDTH 7 0
BBX 3 3 2 0
BITMAP
60
40
c0
ENDCHAR
STARTCHAR minus
ENCODING 45
SWIDTH 606 0
DWIDTH 7 0
BBX 5 1 2 4
BITMAP
f8
ENDCHAR
STARTCHAR period
ENCODING 46
SWIDTH 606 0
DWIDTH 7 0
BBX 2 2 2 0
BITMAP
c0
c0
ENDCHAR
STARTCHAR slash
ENCODING 47
SWIDTH 606 0
DWIDTH 7 0
BBX 7 9 0 0
BITMAP
02
04
08
08
10
20
20
40
80
ENDCHAR
STARTCHAR zero
ENCODING 48
SWIDTH 606 0
DWIDTH 7 0
BBX 6 7 1 1
BITMAP
38
6c
4c
cc
c8
d8
70
ENDCHAR
STARTCHAR one
ENCODING 49
SWIDTH 606 0
DWIDTH 7 0
BBX 5 7 1 1
BITMAP
30
50
10
10
30
20
f8
ENDCHAR
STARTCHAR two
ENCODING 50
SWIDTH 606 0
DWIDTH 7 0
BBX 6 7 1 1
BITMAP
38
4c
0c
18
30
48
f8
ENDCHAR
STARTCHAR three
ENCODING 51
SWIDTH 606 0
DWIDTH 7 0
BBX 6 7 1 1
BITMAP
38
4c
18
30
18
18
f0
ENDCHAR
STARTCHAR four
ENCODING 52
SWIDTH 606 0
DWIDTH 7 0
BBX 5 7 1 1
BITMAP
18
18
30
50
f8
10
78
ENDCHAR
STARTCHAR five
ENCODING 53
SWIDTH 606 0
DWIDTH 7 0
BBX 6 7 1 1
BITMAP
3c
40
70
58
18
18
f0
ENDCHAR
STARTCHAR six
ENCODING 54
SWIDTH 606 0
DWIDTH 7 0
BBX 6 7 1 1
BITMAP
1c
20
40
f8
d8
d8
70
ENDCHAR
STARTCHAR seven
ENCODING 55
SWIDTH 606 0
DWIDTH 7 0
BBX 5 7 2 1
BITMAP
f8
90
10
20
60
40
40
ENDCHAR
STARTCHAR eight
ENCODING 56
SWIDTH 606 0
DWIDTH 7 0
BBX 6 7 1 1
BITMAP
38
6c
68
70
d8
d8
70
ENDCHAR
STARTCHAR nine
ENCODING 57
SWIDTH 606 0
DWIDTH 7 0
BBX 6 7 1 1
BITMAP
38
4c
cc
cc
78
10
e0
ENDCHAR
STARTCHAR colon
ENCODING 58
SWIDTH 606 0
DWIDTH 7 0
BBX 3 5 2 0
BITMAP
60
60
00
c0
c0
ENDCHAR
STARTCHAR semicolon
ENCODING 59
SWIDTH 606 0
DWIDTH 7 0
BBX 4 5 1 0
BITMAP
30
30
20
60
40
ENDCHAR
STARTCHAR less
ENCODING 60
SWIDTH 606 0
DWIDTH 7 0
BBX 6 5 1 2
BITMAP
0c
30
c0
30
0c
ENDCHAR
STARTCHAR equal
ENCODING 61
SWIDTH 606 0
DWIDTH 7 0
BBX 5 3 2 3
BITMAP
f8
00
f8
ENDCHAR
STARTCHAR greater
ENCODING 62
SWIDTH 606 0
DWIDTH 7 0
BBX 6 5 1 2
BITMAP
c0
70
0c
30
c0
ENDCHAR
STARTCHAR question
ENCODING 63
SWIDTH 606 0
DWIDTH 7 0
BBX 5 7 2 0
BITMAP
f0
18
30
40
00
c0
c0
ENDCHAR
STARTCHAR at
ENCODING 64
SWIDTH 606 0
DWIDTH 7 0
BBX 8 6 0 1
BITMAP
3e
7f
fb
fe
40
3c
ENDCHAR
STARTCHAR A
ENCODING 65
SWIDTH 606 0
DWIDTH 7 0
BBX 7 6 0 1
BITMAP
38
14
14
3c
44
ee
ENDCHAR
STARTCHAR B
ENCODING 66
SWIDTH 606 0
DWIDTH 7 0
BBX 7 6 0 1
BITMAP
3e
26
3c
26
26
fc
ENDCHAR
STARTCHAR C
ENCODING 67
SWIDTH 606 0
DWIDTH 7 0
BBX 7 6 1 1
BITMAP
3a
64
c0
c0
c4
7c
ENDCHAR
STARTCHAR D
ENCODING 68
SWIDTH 606 0
DWIDTH 7 0
BBX 7 6 0 1
BITMAP
7c
26
26
26
44
f8
ENDCHAR
STARTCHAR E
ENCODING 69
SWIDTH 606 0
DWIDTH 7 0
BBX 7 6 0 1
BITMAP
7e
2a
38
6c
44
fc
ENDCHAR
STARTCHAR F
ENCODING 70
SWIDTH 606 0
DWIDTH 7 0
BBX 7 6 0 1
BITMAP
7e
2e
38
68
40
e0
ENDCHAR
STARTCHAR G
ENCODING 71
SWIDTH 606 0
DWIDTH 7 0
BBX 7 6 0 1
BITMAP
1a
66
c0
ce
c4
7c
ENDCHAR
STARTCHAR H
ENCODING 72
SWIDTH 606 0
DWIDTH 7 0
BBX 7 6 0 1
BITMAP
66
24
3c
48
48
cc
ENDCHAR
STARTCHAR I
ENCODING 73
SWIDTH 606 0
DWIDTH 7 0
BBX 6 6 1 1
BITMAP
7c
10
10
20
20
f8
ENDCHAR
STARTCHAR J
ENCODING 74
SWIDTH 606 0
DWIDTH 7 0
BBX 7 6 1 1
BITMAP
1e
08
08
88
88
70
ENDCHAR
STARTCHAR K
ENCODING 75
SWIDTH 606 0
DWIDTH 7 0
BBX 7 6 1 1
BITMAP
7e
28
30
50
48
ec
ENDCHAR
STARTCHAR L
ENCODING 76
SWIDTH 606 0
DWIDTH 7 0
BBX 6 6 1 1
BITMAP
70
20
20
24
44
f8
ENDCHAR
STARTCHAR M
ENCODING 77
SWIDTH 606 0
DWIDTH 7 0
BBX 8 6 0 1
BITMAP
73
36
5a
5a
44
ee
ENDCHAR
STARTCHAR N
ENCODING 78
SWIDTH 606 0
DWIDTH 7 0
BBX 8 6 0 1
BITMAP
77
32
32
4e
4c
ec
ENDCHAR
STARTCHAR O
ENCODING 79
SWIDTH 606 0
DWIDTH 7 0
BBX 7 6 0 1
BITMAP
3c
66
c6
c6
cc
38
ENDCHAR
STARTCHAR P
ENCODING 80
SWIDTH 606 0
DWIDTH 7 0
BBX 7 6 1 1
BITMAP
7c
26
4e
7c
40
e0
ENDCHAR
STARTCHAR Q
ENCODING 81
SWIDTH 606 0
DWIDTH 7 0
BBX 7 7 0 0
BITMAP
3c
66
c6
c6
cc
78
7c
ENDCHAR
STARTCHAR R
ENCODING 82
SWIDTH 606 0
DWIDTH 7 0
BBX 7 6 0 1
BITMAP
3e
26
3c
28
48
e6
ENDCHAR
STARTCHAR S
ENCODING 83
SWIDTH 606 0
DWIDTH 7 0
BBX 6 6 1 1
BITMAP
7c
c8
f8
0c
cc
b0
ENDCHAR
STARTCHAR T
ENCODING 84
SWIDTH 606 0
DWIDTH 7 0
BBX 6 6 1 1
BITMAP
7c
a4
20
20
20
f0
ENDCHAR
STARTCHAR U
ENCODING 85
SWIDTH 606 0
DWIDTH 7 0
BBX 7 6 1 1
BITMAP
ee
44
44
c8
c8
70
ENDCHAR
STARTCHAR V
ENCODING 86
SWIDTH 606 0
DWIDTH 7 0
BBX 7 6 1 1
BITMAP
ee
44
48
50
50
20
ENDCHAR
STARTCHAR W
ENCODING 87
SWIDTH 606 0
DWIDTH 7 0
BBX 7 6 1 1
BITMAP
ee
94
b4
d8
d8
98
ENDCHAR
STARTCHAR X
ENCODING 88
SWIDTH 606 0
DWIDTH 7 0
BBX 7 6 0 1
BITMAP
76
3c
10
28
48
fc
ENDCHAR
STARTCHAR Y
ENCODING 89
SWIDTH 606 0
DWIDTH 7 0
BBX 6 6 1 1
BITMAP
cc
58
30
20
20
e0
ENDCHAR
STARTCHAR Z
ENCODING 90
SWIDTH 606 0
DWIDTH 7 0
BBX 6 6 1 1
BITMAP
7c
48
10
28
48
f8
ENDCHAR
STARTCHAR bracketleft
ENCODING 91
SWIDTH 606 0
DWIDTH 7 0
BBX 4 8 3 0
BITMAP
30
40
40
40
40
40
80
c0
ENDCHAR
STARTCHAR backslash
ENCODING 92
SWIDTH 606 0
DWIDTH 7 0
BBX 3 10 2 -1
BITMAP
80
80
80
40
40
40
40
20
20
20
ENDCHAR
STARTCHAR bracketright
ENCODING 93
SWIDTH 606 0
DWIDTH 7 0
BBX 4 8 1 0
BITMAP
30
10
10
20
20
20
20
c0
ENDCHAR
STARTCHAR asciicircum
ENCODING 94
SWIDTH 606 0
DWIDTH 7 0
BBX 5 4 2 3
BITMAP
20
50
50
88
ENDCHAR
STARTCHAR underscore
ENCODING 95
SWIDTH 606 0
DWIDTH 7 0
BBX 8 1 -1 -1
BITMAP
ff
ENDCHAR
STARTCHAR quoteleft
ENCODING 96
SWIDTH 606 0
DWIDTH 7 0
BBX 3 3 2 4
BITMAP
60
40
c0
ENDCHAR
STARTCHAR a
ENCODING 97
SWIDTH 606 0
DWIDTH 7 0
BBX 6 5 0 1
BITMAP
3c
04
7c
c8
7c
ENDCHAR
STARTCHAR b
ENCODING 98
SWIDTH 606 0
DWIDTH 7 0
BBX 7 7 0 1
BITMAP
60
20
3c
26
46
64
f8
ENDCHAR
STARTCHAR c
ENCODING 99
SWIDTH 606 0
DWIDTH 7 0
BBX 6 5 1 1
BITMAP
3c
4c
c0
c4
78
ENDCHAR
STARTCHAR d
ENCODING 100
SWIDTH 606 0
DWIDTH 7 0
BBX 7 7 0 1
BITMAP
0c
02
3a
64
c4
cc
7e
ENDCHAR
STARTCHAR e
ENCODING 101
SWIDTH 606 0
DWIDTH 7 0
BBX 6 5 1 1
BITMAP
38
4c
fc
c8
78
ENDCHAR
STARTCHAR f
ENCODING 102
SWIDTH 606 0
DWIDTH 7 0
BBX 6 7 1 1
BITMAP
18
20
78
20
20
40
f0
ENDCHAR
STARTCHAR g
ENCODING 103
SWIDTH 606 0
DWIDTH 7 0
BBX 7 7 0 -1
BITMAP
3e
64
c4
cc
78
08
70
ENDCHAR
STARTCHAR h
ENCODING 104
SWIDTH 606 0
DWIDTH 7 0
BBX 7 7 0 1
BITMAP
60
20
3c
26
26
44
ec
ENDCHAR
STARTCHAR i
ENCODING 105
SWIDTH 606 0
DWIDTH 7 0
BBX 5 7 1 1
BITMAP
10
00
70
10
30
20
f8
ENDCHAR
STARTCHAR j
ENCODING 106
SWIDTH 606 0
DWIDTH 7 0
BBX 6 9 0 -1
BITMAP
08
00
7c
08
08
08
18
50
e0
ENDCHAR
STARTCHAR k
ENCODING 107
SWIDTH 606 0
DWIDTH 7 0
BBX 7 7 0 1
BITMAP
70
20
2e
38
30
68
cc
ENDCHAR
STARTCHAR l
ENCODING 108
SWIDTH 606 0
DWIDTH 7 0
BBX 5 7 1 1
BITMAP
70
10
10
10
20
20
f8
ENDCHAR
STARTCHAR m
ENCODING 109
SWIDTH 606 0
DWIDTH 7 0
BBX 7 5 0 1
BITMAP
7e
4e
54
54
de
ENDCHAR
STARTCHAR n
ENCODING 110
SWIDTH 606 0
DWIDTH 7 0
BBX 7 5 0 1
BITMAP
7c
26
26
44
ec
ENDCHAR
STARTCHAR o
ENCODING 111
SWIDTH 606 0
DWIDTH 7 0
BBX 7 5 0 1
BITMAP
3c
66
c6
c4
78
ENDCHAR
STARTCHAR p
ENCODING 112
SWIDTH 606 0
DWIDTH 7 0
BBX 7 7 0 -1
BITMAP
7c
26
46
64
78
40
e0
ENDCHAR
STARTCHAR q
ENCODING 113
SWIDTH 606 0
DWIDTH 7 0
BBX 8 7 0 -1
BITMAP
3a
64
c4
cc
7c
04
1c
ENDCHAR
STARTCHAR r
ENCODING 114
SWIDTH 606 0
DWIDTH 7 0
BBX 6 5 1 1
BITMAP
78
24
20
20
f0
ENDCHAR
STARTCHAR s
ENCODING 115
SWIDTH 606 0
DWIDTH 7 0
BBX 6 5 1 1
BITMAP
7c
cc
78
8c
f8
ENDCHAR
STARTCHAR t
ENCODING 116
SWIDTH 606 0
DWIDTH 7 0
BBX 6 6 1 1
BITMAP
60
f8
40
c0
c4
78
ENDCHAR
STARTCHAR u
ENCODING 117
SWIDTH 606 0
DWIDTH 7 0
BBX 5 5 1 1
BITMAP
d8
48
c8
d8
78
ENDCHAR
STARTCHAR v
ENCODING 118
SWIDTH 606 0
DWIDTH 7 0
BBX 7 5 1 1
BITMAP
ee
4c
68
30
20
ENDCHAR
STARTCHAR w
ENCODING 119
SWIDTH 606 0
DWIDTH 7 0
BBX 7 5 1 1
BITMAP
c6
54
74
78
58
ENDCHAR
STARTCHAR x
ENCODING 120
SWIDTH 606 0
DWIDTH 7 0
BBX 7 5 0 1
BITMAP
7e
38
38
68
ec
ENDCHAR
STARTCHAR y
ENCODING 121
SWIDTH 606 0
DWIDTH 7 0
BBX 6 7 1 -1
BITMAP
ec
c8
c8
d8
78
10
60
ENDCHAR
STARTCHAR z
ENCODING 122
SWIDTH 606 0
DWIDTH 7 0
BBX 6 5 1 1
BITMAP
7c
48
30
48
f8
ENDCHAR
STARTCHAR braceleft
ENCODING 123
SWIDTH 606 0
DWIDTH 7 0
BBX 4 8 3 0
BITMAP
70
60
60
e0
c0
c0
c0
e0
ENDCHAR
STARTCHAR bar
ENCODING 124
SWIDTH 606 0
DWIDTH 7 0
BBX 2 9 3 -1
BITMAP
c0
c0
c0
c0
c0
c0
c0
c0
c0
ENDCHAR
STARTCHAR braceright
ENCODING 125
SWIDTH 606 0
DWIDTH 7 0
BBX 4 8 1 0
BITMAP
70
30
30
30
60
60
60
c0
ENDCHAR
STARTCHAR asciitilde
ENCODING 126
SWIDTH 606 0
DWIDTH 7 0
BBX 5 2 2 3
BITMAP
68
b0
ENDCHAR
STARTCHAR space
ENCODING 160
SWIDTH 606 0
DWIDTH 7 0
BBX 0 0 0 1
BITMAP
ENDCHAR
STARTCHAR Aogonek
ENCODING 161
SWIDTH 606 0
DWIDTH 7 0
BBX 7 8 0 -1
BITMAP
38
14
14
3c
44
fe
18
0c
ENDCHAR
STARTCHAR breve
ENCODING 162
SWIDTH 606 0
DWIDTH 7 0
BBX 4 2 3 6
BITMAP
90
60
ENDCHAR
STARTCHAR Lslash
ENCODING 163
SWIDTH 606 0
DWIDTH 7 0
BBX 6 6 1 1
BITMAP
70
38
20
44
44
f8
ENDCHAR
STARTCHAR currency
ENCODING 164
SWIDTH 606 0
DWIDTH 7 0
BBX 6 5 1 2
BITMAP
44
fc
cc
cc
fc
ENDCHAR
STARTCHAR Lcaron
ENCODING 165
SWIDTH 606 0
DWIDTH 7 0
BBX 7 7 1 1
BITMAP
04
70
20
20
24
44
f8
ENDCHAR
STARTCHAR Sacute
ENCODING 166
SWIDTH 606 0
DWIDTH 7 0
BBX 6 8 1 1
BITMAP
08
00
7c
c8
f8
0c
cc
b0
ENDCHAR
STARTCHAR section
ENCODING 167
SWIDTH 606 0
DWIDTH 7 0
BBX 6 7 1 0
BITMAP
3c
60
d0
d8
38
b0
e0
ENDCHAR
STARTCHAR dieresis
ENCODING 168
SWIDTH 606 0
DWIDTH 7 0
BBX 2 1 3 7
BITMAP
c0
ENDCHAR
STARTCHAR Scaron
ENCODING 169
SWIDTH 606 0
DWIDTH 7 0
BBX 6 9 1 1
BITMAP
28
10
00
7c
c8
f8
0c
cc
b0
ENDCHAR
STARTCHAR Scedilla
ENCODING 170
SWIDTH 606 0
DWIDTH 7 0
BBX 6 8 1 -1
BITMAP
7c
c8
f0
0c
8c
f0
20
60
ENDCHAR
STARTCHAR Tcaron
ENCODING 171
SWIDTH 606 0
DWIDTH 7 0
BBX 6 9 1 1
BITMAP
28
10
00
7c
a4
20
20
20
f0
ENDCHAR
STARTCHAR Zacute
ENCODING 172
SWIDTH 606 0
DWIDTH 7 0
BBX 6 8 1 1
BITMAP
08
00
7c
48
10
28
48
f8
ENDCHAR
STARTCHAR hyphen
ENCODING 173
SWIDTH 606 0
DWIDTH 7 0
BBX 2 1 3 4
BITMAP
c0
ENDCHAR
STARTCHAR Zcaron
ENCODING 174
SWIDTH 606 0
DWIDTH 7 0
BBX 6 9 1 1
BITMAP
28
10
00
7c
48
10
28
48
f8
ENDCHAR
STARTCHAR Zdotaccent
ENCODING 175
SWIDTH 606 0
DWIDTH 7 0
BBX 6 8 1 1
BITMAP
18
00
7c
48
10
28
48
f8
ENDCHAR
STARTCHAR degree
ENCODING 176
SWIDTH 606 0
DWIDTH 7 0
BBX 4 3 2 5
BITMAP
60
f0
60
ENDCHAR
STARTCHAR aogonek
ENCODING 177
SWIDTH 606 0
DWIDTH 7 0
BBX 6 7 0 -1
BITMAP
3c
04
7c
c8
7c
18
08
ENDCHAR
STARTCHAR ogonek
ENCODING 178
SWIDTH 606 0
DWIDTH 7 0
BBX 3 2 1 -1
BITMAP
40
60
ENDCHAR
STARTCHAR lslash
ENCODING 179
SWIDTH 606 0
DWIDTH 7 0
BBX 5 7 1 1
BITMAP
70
20
28
30
60
20
f0
ENDCHAR
STARTCHAR acute
ENCODING 180
SWIDTH 606 0
DWIDTH 7 0
BBX 3 1 3 7
BITMAP
40
ENDCHAR
STARTCHAR lcaron
ENCODING 181
SWIDTH 606 0
DWIDTH 7 0
BBX 7 7 1 1
BITMAP
74
10
10
10
20
20
f8
ENDCHAR
STARTCHAR sacute
ENCODING 182
SWIDTH 606 0
DWIDTH 7 0
BBX 6 7 1 1
BITMAP
10
00
7c
cc
78
8c
f8
ENDCHAR
STARTCHAR caron
ENCODING 183
SWIDTH 606 0
DWIDTH 7 0
BBX 3 2 3 6
BITMAP
a0
40
ENDCHAR
STARTCHAR cedilla
ENCODING 184
SWIDTH 606 0
DWIDTH 7 0
BBX 3 3 2 -1
BITMAP
40
60
e0
ENDCHAR
STARTCHAR scaron
ENCODING 185
SWIDTH 606 0
DWIDTH 7 0
BBX 6 7 1 1
BITMAP
28
10
7c
cc
78
8c
f8
ENDCHAR
STARTCHAR scedilla
ENCODING 186
SWIDTH 606 0
DWIDTH 7 0
BBX 6 7 1 -1
BITMAP
7c
cc
7c
8c
f0
30
70
ENDCHAR
STARTCHAR tcaron
ENCODING 187
SWIDTH 606 0
DWIDTH 7 0
BBX 6 7 1 1
BITMAP
08
60
f8
40
c0
c4
78
ENDCHAR
STARTCHAR zacute
ENCODING 188
SWIDTH 606 0
DWIDTH 7 0
BBX 6 7 1 1
BITMAP
10
00
7c
48
30
48
f8
ENDCHAR
STARTCHAR hungarumlaut
ENCODING 189
SWIDTH 606 0
DWIDTH 7 0
BBX 5 1 2 7
BITMAP
50
ENDCHAR
STARTCHAR zcaron
ENCODING 190
SWIDTH 606 0
DWIDTH 7 0
BBX 6 7 1 1
BITMAP
28
10
7c
48
30
48
f8
ENDCHAR
STARTCHAR zdotaccent
ENCODING 191
SWIDTH 606 0
DWIDTH 7 0
BBX 6 7 1 1
BITMAP
18
00
7c
48
30
48
f8
ENDCHAR
STARTCHAR Racute
ENCODING 192
SWIDTH 606 0
DWIDTH 7 0
BBX 7 8 0 1
BITMAP
04
00
3e
26
3c
28
48
e6
ENDCHAR
STARTCHAR Aacute
ENCODING 193
SWIDTH 606 0
DWIDTH 7 0
BBX 7 8 0 1
BITMAP
04
00
38
14
14
3c
44
ee
ENDCHAR
STARTCHAR Acircumflex
ENCODING 194
SWIDTH 606 0
DWIDTH 7 0
BBX 7 9 0 1
BITMAP
08
14
00
38
14
14
3c
44
ee
ENDCHAR
STARTCHAR Abreve
ENCODING 195
SWIDTH 606 0
DWIDTH 7 0
BBX 7 9 0 1
BITMAP
12
0c
00
38
14
14
3c
44
ee
ENDCHAR
STARTCHAR Adieresis
ENCODING 196
SWIDTH 606 0
DWIDTH 7 0
BBX 7 8 0 1
BITMAP
14
00
38
14
14
3c
44
ee
ENDCHAR
STARTCHAR Lacute
ENCODING 197
SWIDTH 606 0
DWIDTH 7 0
BBX 6 8 1 1
BITMAP
20
00
70
20
20
24
44
f8
ENDCHAR
STARTCHAR Cacute
ENCODING 198
SWIDTH 606 0
DWIDTH 7 0
BBX 7 8 1 1
BITMAP
08
00
3a
64
c0
c0
c4
7c
ENDCHAR
STARTCHAR Ccedilla
ENCODING 199
SWIDTH 606 0
DWIDTH 7 0
BBX 7 8 1 -1
BITMAP
3a
64
c0
c0
c4
7c
30
30
ENDCHAR
STARTCHAR Ccaron
ENCODING 200
SWIDTH 606 0
DWIDTH 7 0
BBX 7 9 1 1
BITMAP
28
10
00
3a
64
c0
c0
c4
7c
ENDCHAR
STARTCHAR Eacute
ENCODING 201
SWIDTH 606 0
DWIDTH 7 0
BBX 7 8 0 1
BITMAP
04
00
7e
2a
38
6c
44
fc
ENDCHAR
STARTCHAR Eogonek
ENCODING 202
SWIDTH 606 0
DWIDTH 7 0
BBX 7 8 0 -1
BITMAP
3e
2a
38
2c
24
7c
18
0c
ENDCHAR
STARTCHAR Edieresis
ENCODING 203
SWIDTH 606 0
DWIDTH 7 0
BBX 7 8 0 1
BITMAP
14
00
7e
2a
38
6c
44
fc
ENDCHAR
STARTCHAR Ecaron
ENCODING 204
SWIDTH 606 0
DWIDTH 7 0
BBX 7 9 0 1
BITMAP
14
08
00
7e
2a
38
6c
44
fc
ENDCHAR
STARTCHAR Iacute
ENCODING 205
SWIDTH 606 0
DWIDTH 7 0
BBX 6 8 1 1
BITMAP
08
00
7c
10
10
20
20
f8
ENDCHAR
STARTCHAR Icircumflex
ENCODING 206
SWIDTH 606 0
DWIDTH 7 0
BBX 6 9 1 1
BITMAP
10
28
00
7c
10
10
20
20
f8
ENDCHAR
STARTCHAR Dcaron
ENCODING 207
SWIDTH 606 0
DWIDTH 7 0
BBX 7 9 0 1
BITMAP
14
08
00
7c
26
26
26
44
f8
ENDCHAR
STARTCHAR Eth
ENCODING 208
SWIDTH 606 0
DWIDTH 7 0
BBX 7 6 0 1
BITMAP
7c
26
7e
26
44
f8
ENDCHAR
STARTCHAR Nacute
ENCODING 209
SWIDTH 606 0
DWIDTH 7 0
BBX 8 8 0 1
BITMAP
04
00
77
32
32
4e
4c
ec
ENDCHAR
STARTCHAR Ncaron
ENCODING 210
SWIDTH 606 0
DWIDTH 7 0
BBX 8 9 0 1
BITMAP
14
08
00
77
32
32
4e
4c
ec
ENDCHAR
STARTCHAR Oacute
ENCODING 211
SWIDTH 606 0
DWIDTH 7 0
BBX 7 8 0 1
BITMAP
04
00
3c
66
c6
c6
cc
38
ENDCHAR
STARTCHAR Ocircumflex
ENCODING 212
SWIDTH 606 0
DWIDTH 7 0
BBX 7 9 0 1
BITMAP
08
14
00
3c
66
c6
c6
cc
38
ENDCHAR
STARTCHAR Ohungarumlaut
ENCODING 213
SWIDTH 606 0
DWIDTH 7 0
BBX 8 8 0 1
BITMAP
0a
00
3c
66
c6
c6
cc
38
ENDCHAR
STARTCHAR Odieresis
ENCODING 214
SWIDTH 606 0
DWIDTH 7 0
BBX 7 8 0 1
BITMAP
14
00
3c
66
c6
c6
cc
38
ENDCHAR
STARTCHAR multiply
ENCODING 215
SWIDTH 606 0
DWIDTH 7 0
BBX 4 5 2 2
BITMAP
90
70
20
60
90
ENDCHAR
STARTCHAR Rcaron
ENCODING 216
SWIDTH 606 0
DWIDTH 7 0
BBX 7 9 0 1
BITMAP
14
08
00
3e
26
3c
28
48
e6
ENDCHAR
STARTCHAR Uring
ENCODING 217
SWIDTH 606 0
DWIDTH 7 0
BBX 7 9 1 1
BITMAP
38
38
00
ee
44
44
c8
c8
70
ENDCHAR
STARTCHAR Uacute
ENCODING 218
SWIDTH 606 0
DWIDTH 7 0
BBX 7 8 1 1
BITMAP
08
00
ee
44
44
c8
c8
70
ENDCHAR
STARTCHAR Uhungarumlaut
ENCODING 219
SWIDTH 606 0
DWIDTH 7 0
BBX 7 8 1 1
BITMAP
14
00
ee
44
44
c8
c8
70
ENDCHAR
STARTCHAR Udieresis
ENCODING 220
SWIDTH 606 0
DWIDTH 7 0
BBX 7 8 1 1
BITMAP
28
00
ee
44
44
c8
c8
70
ENDCHAR
STARTCHAR Yacute
ENCODING 221
SWIDTH 606 0
DWIDTH 7 0
BBX 6 8 1 1
BITMAP
08
00
cc
58
30
20
20
e0
ENDCHAR
STARTCHAR Tcedilla
ENCODING 222
SWIDTH 606 0
DWIDTH 7 0
BBX 6 8 1 -1
BITMAP
7c
a4
20
20
20
f0
30
70
ENDCHAR
STARTCHAR germandbls
ENCODING 223
SWIDTH 606 0
DWIDTH 7 0
BBX 7 7 0 1
BITMAP
1c
26
2c
3c
26
46
5c
ENDCHAR
STARTCHAR racute
ENCODING 224
SWIDTH 606 0
DWIDTH 7 0
BBX 6 7 1 1
BITMAP
10
00
78
24
20
20
f0
ENDCHAR
STARTCHAR aacute
ENCODING 225
SWIDTH 606 0
DWIDTH 7 0
BBX 6 7 0 1
BITMAP
08
00
3c
04
7c
c8
7c
ENDCHAR
STARTCHAR acircumflex
ENCODING 226
SWIDTH 606 0
DWIDTH 7 0
BBX 6 7 0 1
BITMAP
1c
00
3c
04
7c
c8
7c
ENDCHAR
STARTCHAR abreve
ENCODING 227
SWIDTH 606 0
DWIDTH 7 0
BBX 7 7 0 1
BITMAP
12
0c
3c
04
7c
c8
7c
ENDCHAR
STARTCHAR adieresis
ENCODING 228
SWIDTH 606 0
DWIDTH 7 0
BBX 6 7 0 1
BITMAP
18
00
3c
04
7c
c8
7c
ENDCHAR
STARTCHAR lacute
ENCODING 229
SWIDTH 606 0
DWIDTH 7 0
BBX 5 9 1 1
BITMAP
10
00
70
10
10
10
20
20
f8
ENDCHAR
STARTCHAR cacute
ENCODING 230
SWIDTH 606 0
DWIDTH 7 0
BBX 6 7 1 1
BITMAP
10
00
3c
4c
c0
c4
78
ENDCHAR
STARTCHAR ccedilla
ENCODING 231
SWIDTH 606 0
DWIDTH 7 0
BBX 6 7 1 -1
BITMAP
3c
4c
c0
c4
78
30
70
ENDCHAR
STARTCHAR ccaron
ENCODING 232
SWIDTH 606 0
DWIDTH 7 0
BBX 6 7 1 1
BITMAP
28
10
3c
4c
c0
c4
78
ENDCHAR
STARTCHAR eacute
ENCODING 233
SWIDTH 606 0
DWIDTH 7 0
BBX 6 7 1 1
BITMAP
10
00
38
4c
fc
c8
78
ENDCHAR
STARTCHAR eogonek
ENCODING 234
SWIDTH 606 0
DWIDTH 7 0
BBX 6 7 1 -1
BITMAP
38
4c
fc
c4
78
60
20
ENDCHAR
STARTCHAR edieresis
ENCODING 235
SWIDTH 606 0
DWIDTH 7 0
BBX 6 7 1 1
BITMAP
30
00
38
4c
fc
c8
78
ENDCHAR
STARTCHAR ecaron
ENCODING 236
SWIDTH 606 0
DWIDTH 7 0
BBX 6 7 1 1
BITMAP
28
10
38
4c
fc
c8
78
ENDCHAR
STARTCHAR iacute
ENCODING 237
SWIDTH 606 0
DWIDTH 7 0
BBX 5 7 1 1
BITMAP
10
00
70
10
30
20
f8
ENDCHAR
STARTCHAR icircumflex
ENCODING 238
SWIDTH 606 0
DWIDTH 7 0
BBX 5 7 1 1
BITMAP
38
00
70
10
30
20
f8
ENDCHAR
STARTCHAR dcaron
ENCODING 239
SWIDTH 606 0
DWIDTH 7 0
BBX 10 7 0 1
BITMAP
0c80
0200
3a00
6400
c400
cc00
7e00
ENDCHAR
STARTCHAR dbar
ENCODING 240
SWIDTH 606 0
DWIDTH 7 0
BBX 8 7 0 1
BITMAP
0c
1f
3c
64
c4
cc
7c
ENDCHAR
STARTCHAR nacute
ENCODING 241
SWIDTH 606 0
DWIDTH 7 0
BBX 7 7 0 1
BITMAP
08
00
7c
26
26
44
ec
ENDCHAR
STARTCHAR ncaron
ENCODING 242
SWIDTH 606 0
DWIDTH 7 0
BBX 7 7 0 1
BITMAP
14
08
7c
26
26
44
ec
ENDCHAR
STARTCHAR oacute
ENCODING 243
SWIDTH 606 0
DWIDTH 7 0
BBX 7 7 0 1
BITMAP
08
00
3c
66
c6
c4
78
ENDCHAR
STARTCHAR ocircumflex
ENCODING 244
SWIDTH 606 0
DWIDTH 7 0
BBX 7 7 0 1
BITMAP
1c
00
3c
66
c6
c4
78
ENDCHAR
STARTCHAR ohungarumlaut
ENCODING 245
SWIDTH 606 0
DWIDTH 7 0
BBX 7 7 0 1
BITMAP
14
00
3c
66
c6
c4
78
ENDCHAR
STARTCHAR odieresis
ENCODING 246
SWIDTH 606 0
DWIDTH 7 0
BBX 7 7 0 1
BITMAP
18
00
3c
66
c6
c4
78
ENDCHAR
STARTCHAR divide
ENCODING 247
SWIDTH 606 0
DWIDTH 7 0
BBX 6 5 1 2
BITMAP
10
00
fc
00
10
ENDCHAR
STARTCHAR rcaron
ENCODING 248
SWIDTH 606 0
DWIDTH 7 0
BBX 6 7 1 1
BITMAP
28
10
78
24
20
20
f0
ENDCHAR
STARTCHAR uring
ENCODING 249
SWIDTH 606 0
DWIDTH 7 0
BBX 5 8 1 1
BITMAP
30
38
10
d8
48
c8
d8
78
ENDCHAR
STARTCHAR uacute
ENCODING 250
SWIDTH 606 0
DWIDTH 7 0
BBX 5 7 1 1
BITMAP
10
00
d8
48
c8
d8
78
ENDCHAR
STARTCHAR uhungarumlaut
ENCODING 251
SWIDTH 606 0
DWIDTH 7 0
BBX 6 7 1 1
BITMAP
28
00
d8
48
c8
d8
78
ENDCHAR
STARTCHAR udieresis
ENCODING 252
SWIDTH 606 0
DWIDTH 7 0
BBX 5 7 1 1
BITMAP
30
00
d8
48
c8
d8
78
ENDCHAR
STARTCHAR yacute
ENCODING 253
SWIDTH 606 0
DWIDTH 7 0
BBX 6 9 1 -1
BITMAP
10
00
ec
c8
c8
d8
78
10
60
ENDCHAR
STARTCHAR tcedilla
ENCODING 254
SWIDTH 606 0
DWIDTH 7 0
BBX 6 8 1 -1
BITMAP
60
f8
40
c0
c4
78
30
f0
ENDCHAR
STARTCHAR dotaccent
ENCODING 255
SWIDTH 606 0
DWIDTH 7 0
BBX 2 1 4 7
BITMAP
c0
ENDCHAR
ENDFONT
